<svg width="189" height="63" viewBox="0 0 189 63" fill="none" xmlns="http://www.w3.org/2000/svg">
<path d="M165.424 62.736L182.896 23.504H188.4L171.312 62.736H165.424ZM171.952 50.192L159.216 23.504H165.936L176.624 47.184L171.952 50.192Z" fill="#AE62BB"/>
<path d="M146.934 0.463989H152.886V50H146.934V0.463989Z" fill="#AE62BB"/>
<path d="M119.748 50.64C117.316 50.64 115.098 50.064 113.092 48.912C111.13 47.7173 109.572 46.0533 108.42 43.92C107.268 41.744 106.692 39.248 106.692 36.432C106.692 33.488 107.29 30.9707 108.484 28.88C109.722 26.7893 111.386 25.1893 113.476 24.08C115.567 22.9707 117.914 22.416 120.516 22.416C122.607 22.416 124.591 22.864 126.468 23.76C128.388 24.656 129.882 25.8933 130.948 27.472L130.692 29.584V0.463989H136.58V50H130.628V43.408L131.268 45.072C130.031 46.6933 128.431 48.0373 126.468 49.104C124.506 50.128 122.266 50.64 119.748 50.64ZM121.604 45.584C123.183 45.584 124.591 45.3067 125.828 44.752C127.066 44.1547 128.09 43.344 128.9 42.32C129.711 41.296 130.287 40.08 130.628 38.672V33.68C130.287 32.4 129.668 31.2907 128.772 30.352C127.919 29.3707 126.874 28.6027 125.636 28.048C124.442 27.4507 123.098 27.152 121.604 27.152C119.983 27.152 118.49 27.5573 117.124 28.368C115.802 29.136 114.735 30.2027 113.924 31.568C113.114 32.9333 112.708 34.512 112.708 36.304C112.708 38.0533 113.114 39.632 113.924 41.04C114.735 42.4053 115.823 43.5147 117.188 44.368C118.554 45.1787 120.026 45.584 121.604 45.584Z" fill="#AE62BB"/>
<path d="M78.9331 23.504L79.4451 29.968L79.1891 28.944C80.0424 26.9813 81.4291 25.424 83.3491 24.272C85.2691 23.0773 87.4878 22.48 90.0051 22.48C92.5224 22.48 94.5704 23.2266 96.1491 24.72C97.7704 26.1706 98.6024 28.0693 98.6451 30.416V50H92.6291V32.528C92.5864 31.0773 92.1598 29.904 91.3491 29.008C90.5811 28.0693 89.3651 27.6 87.7011 27.6C86.1651 27.6 84.7784 28.0266 83.5411 28.88C82.3038 29.7333 81.3224 30.9066 80.5971 32.4C79.9144 33.8933 79.5731 35.6213 79.5731 37.584V50H73.6211V23.504H78.9331Z" fill="#AE62BB"/>
<path d="M36.4424 36.496C36.4424 33.8507 37.061 31.4614 38.2984 29.328C39.5784 27.1947 41.3277 25.5093 43.5464 24.272C45.765 23.0347 48.2824 22.416 51.0984 22.416C53.9997 22.416 56.5384 23.0347 58.7144 24.272C60.8904 25.5093 62.5757 27.1947 63.7704 29.328C64.965 31.4614 65.5624 33.8507 65.5624 36.496C65.5624 39.1413 64.965 41.552 63.7704 43.728C62.5757 45.8614 60.869 47.5467 58.6504 48.784C56.4744 50.0214 53.9357 50.64 51.0344 50.64C48.2184 50.64 45.701 50.064 43.4824 48.912C41.3064 47.7173 39.5784 46.0747 38.2984 43.984C37.061 41.8507 36.4424 39.3547 36.4424 36.496ZM42.3944 36.56C42.3944 38.2667 42.7784 39.824 43.5464 41.232C44.3144 42.5973 45.3384 43.6853 46.6184 44.496C47.941 45.3067 49.3917 45.712 50.9704 45.712C52.6344 45.712 54.1064 45.3067 55.3864 44.496C56.709 43.6853 57.7331 42.5973 58.4584 41.232C59.1837 39.824 59.5464 38.2667 59.5464 36.56C59.5464 34.8533 59.1837 33.3174 58.4584 31.952C57.7331 30.544 56.709 29.4347 55.3864 28.624C54.1064 27.7707 52.6344 27.344 50.9704 27.344C49.349 27.344 47.877 27.7707 46.5544 28.624C45.2744 29.4773 44.2504 30.608 43.4824 32.016C42.757 33.3813 42.3944 34.896 42.3944 36.56Z" fill="#AE62BB"/>
<path d="M12.5603 3.72803C17.2109 3.72803 20.8589 4.68803 23.5043 6.60803C26.1923 8.48536 27.5363 11.4294 27.5363 15.44C27.5363 17.872 26.9816 19.984 25.8723 21.776C24.7629 23.568 23.2056 24.976 21.2003 26C19.2376 27.024 16.9123 27.6 14.2243 27.728L13.3283 24.528C16.4429 24.6134 19.2376 25.168 21.7123 26.192C24.1869 27.216 26.1496 28.6454 27.6003 30.48C29.0509 32.3147 29.7763 34.4907 29.7763 37.008C29.7763 39.312 29.3496 41.296 28.4963 42.96C27.6429 44.5814 26.4909 45.9254 25.0403 46.992C23.5896 48.016 21.9469 48.784 20.1123 49.296C18.2776 49.7654 16.3789 50 14.4163 50H0.65625V3.72803H12.5603ZM13.8403 24.016C16.4003 24.016 18.2563 23.312 19.4083 21.904C20.5603 20.4534 21.1363 18.704 21.1363 16.656C21.1363 14.224 20.3896 12.4534 18.8963 11.344C17.4029 10.2347 15.3976 9.68003 12.8803 9.68003H6.86425V24.016H13.8403ZM14.0963 44.24C15.8029 44.24 17.3603 43.984 18.7683 43.472C20.2189 42.96 21.3496 42.1707 22.1603 41.104C23.0136 40.0374 23.4403 38.6934 23.4403 37.072C23.4403 35.28 22.9496 33.872 21.9683 32.848C21.0296 31.824 19.8136 31.0987 18.3203 30.672C16.8269 30.2027 15.2909 29.968 13.7123 29.968H6.86425V44.24H14.0963Z" fill="#AE62BB"/>
</svg>
